<svg width="780" height="157" viewBox="0 0 780 157" fill="none" xmlns="http://www.w3.org/2000/svg">
<path fill-rule="evenodd" clip-rule="evenodd" d="M65.5 0L0.5 156.5H54.5L106.5 102L128.5 156.5H166.75H205V0H161.5L124.5 37L111.5 0H65.5ZM137 73C139 70.2 157.583 51.8333 166.75 44V156.5L137 73ZM63 102L89.5 44L97.5 68.5L63 102Z" fill="white"/>
<path d="M300.498 141.566C307.054 141.566 310.332 139.16 310.332 134.348V69.6515C310.332 64.8401 307.054 62.4344 300.498 62.4344H289.681C282.961 62.4344 279.601 64.8401 279.601 69.6515V134.348C279.601 139.16 282.961 141.566 289.681 141.566H300.498ZM256 67.3317C256 61.4893 258.786 56.8496 264.359 53.4129C270.095 49.8043 276.979 48 285.01 48H305.17C317.79 48 326.64 51.6945 331.721 59.0835C333.36 61.4893 334.18 64.2387 334.18 67.3317V136.668C334.18 142.511 331.311 147.236 325.575 150.845C320.002 154.282 313.201 156 305.17 156H285.01C272.39 156 263.539 152.305 258.458 144.916C256.819 142.511 256 139.761 256 136.668V67.3317Z" fill="white"/>
<path d="M395.033 96.9737C395.033 92.1623 391.755 89.7566 385.199 89.7566H380.773C377.332 89.7566 374.136 90.7017 371.185 92.5919C368.399 94.4821 367.006 96.8019 367.006 99.5513V156H343.405V75.3222H367.006V80.2196C372.415 76.9547 377.741 75.3222 382.986 75.3222H389.87C399.704 75.3222 407.407 77.7279 412.979 82.5394C419.372 77.7279 426.501 75.3222 434.368 75.3222H441.252C453.872 75.3222 462.723 79.0167 467.804 86.4057C469.443 88.6396 470.262 91.3031 470.262 94.3962V156H446.415V96.9737C446.415 92.1623 443.137 89.7566 436.581 89.7566H432.401C426.993 89.7566 422.895 91.4749 420.109 94.9117C419.29 95.9427 418.798 97.0597 418.634 98.2625V156H395.033V96.9737Z" fill="white"/>
<path d="M520.853 141.566C527.409 141.566 530.687 139.16 530.687 134.348V126.358C530.359 121.718 527.081 119.399 520.853 119.399H512.74C506.02 119.399 502.661 121.804 502.661 126.616V134.348C502.661 139.16 506.02 141.566 512.74 141.566H520.853ZM513.724 89.7566C507.004 89.7566 503.644 92.1623 503.644 96.9737V99.5513H480.043V94.3962C480.043 88.5537 482.829 83.9141 488.401 80.4773C494.138 77.0406 500.94 75.3222 508.807 75.3222H525.524C533.391 75.3222 540.111 77.0406 545.684 80.4773C551.42 83.9141 554.289 88.5537 554.289 94.3962V156H530.687V153.68C527.081 155.227 523.066 156 518.641 156H508.069C495.449 156 486.598 152.305 481.518 144.916C479.879 142.511 479.059 139.847 479.059 136.926V124.038C479.059 118.368 481.845 113.814 487.418 110.377C493.154 106.768 500.038 104.964 508.069 104.964H519.87C524.295 104.964 527.901 105.909 530.687 107.8V96.9737C530.687 92.1623 527.409 89.7566 520.853 89.7566H513.724Z" fill="white"/>
<path d="M579.496 75.0644L601.868 101.613L624.24 75.0644H647.841L613.668 115.532L647.841 156H623.994L601.868 129.709L579.496 156H555.894L590.067 115.532L555.894 75.0644H579.496Z" fill="white"/>
<path d="M680.004 116.048H715.652L697.951 68.105L680.004 116.048ZM714.914 48L752.529 156H728.928L720.323 130.482H675.333L666.974 156H643.373L680.742 48H714.914Z" fill="white"/>
<path d="M756.399 156V48H780V156H756.399Z" fill="white"/>
</svg>
